# xmcd CD database file
#
# Track frame offsets:
#	150
#	14281
#	25596
#	38617
#	49995
#	63258
#	77592
#	90498
#	104331
#	117006
#	131989
#	145106
#	158450
#	167785
#	181347
#	193618
#	207151
#	222073
#
# Disc length: 3147 seconds
#
# Revision: 0
# Processed by: cddbd v1.5.1PL0 Copyright (c) Steve Scherf et al.
# Submitted via: CDex 1.51
#
DISCID=e50c4912
DTITLE=New Orleans - New Orleans
DYEAR=2005
DGENRE=Jazz
TTITLE0=Livery Stable Blues (Original dixieland jazz band)
TTITLE1=Dippermouth Blues (King Oliver)
TTITLE2=High Society Rag (King Oliver)
TTITLE3=Muskrat Ramble (Louis Armstrong)
TTITLE4=Potato Head Blues (Louis Armstrong)
TTITLE5=Black Bottom Stomp (Jelly Roll Morton)
TTITLE6=Kansas City Stomp (Jelly Roll Morton)
TTITLE7=Gatemouth (The New Orleans wanderers)
TTITLE8=Bull Fiddle Blues (Johnny Dodds)
TTITLE9=Panama (Luis Russel)
TTITLE10=Maple Leaf Rag (New Orleans feetwarmers)
TTITLE11=Way Down Yonder In New Orleans (Jimmie Noone)
TTITLE12=Weary Blues (New Orleans feetwarmers)
TTITLE13=Perdido Street Blues (Louis Armstrong)
TTITLE14=Down By The Riverside (Bunk Johnson)
TTITLE15=Do You Know What It Means To Miss New Orleans (Louis Armstrong)
TTITLE16=Tiger Rag (Kid Ory)
TTITLE17=Royal Garden Blues (Sidney Bechet)
EXTD=YEAR: 2005
EXTT0=
EXTT1=
EXTT2=
EXTT3=
EXTT4=
EXTT5=
EXTT6=
EXTT7=
EXTT8=
EXTT9=
EXTT10=
EXTT11=
EXTT12=
EXTT13=
EXTT14=
EXTT15=
EXTT16=
EXTT17=
PLAYORDER=
